#!OML:ASF F:\VICON\USERDATA\INSTALL\rory3\rory3.ASF
:FULLY-SPECIFIED
:DEGREES
573
root -5.67143 17.8308 -12.965 18.2605 36.5067 2.79009
lowerback -5.24907 -0.455659 -1.25529
upperback -0.937653 -0.504188 -1.13007
thorax 1.97884 -0.253228 -0.491003
lowerneck -20.1153 0.770009 2.2978
upperneck 19.0433 1.10858 -3.10991
head 9.35319 0.336377 -1.30164
rclavicle -1.3244e-013 1.2921e-014
rhumerus -32.2089 10.5496 -91.9317
rradius 29.3021
rwrist 4.27443
rhand -17.3757 11.5979
rfingers 7.12502
rthumb 8.87281 -18.1955
lclavicle -1.3244e-013 1.2921e-014
lhumerus -39.0897 -13.7873 85.6213
lradius 42.2129
lwrist 16.0251
lhand -7.33047 26.7062
lfingers 7.12502
lthumb 18.553 55.8414
rfemur -1.77195 -3.88311 20.3066
rtibia 11.6071
rfoot -21.3236 14.2278
rtoes 6.43465
lfemur -47.3087 7.58492 -28.3363
ltibia 29.2907
lfoot -9.29622 -9.4257
ltoes -15.0291
574
root -5.59092 17.813 -12.8776 18.1787 36.2439 2.76624
lowerback -5.11656 -0.427239 -1.31889
upperback -1.00004 -0.464339 -1.22111
thorax 1.84039 -0.232735 -0.544636
lowerneck -20.017 0.802588 2.33002
upperneck 19.0063 1.15037 -3.13347
head 9.32423 0.356403 -1.30894
rclavicle 5.21064e-014 -7.95139e-015
rhumerus -32.4967 10.5225 -92.0195
rradius 29.6009
rwrist 4.21066
rhand -17.3475 11.4315
rfingers 7.12502
rthumb 8.9 -18.3608
lclavicle 5.21064e-014 -7.95139e-015
lhumerus -39.3005 -13.9821 85.579
lradius 42.3159
lwrist 15.9986
lhand -7.82265 26.6101
lfingers 7.12502
lthumb 18.0795 55.7899
rfemur -1.22043 -3.85065 20.1809
rtibia 11.4833
rfoot -21.3566 14.1767
rtoes 4.97236
lfemur -47.3718 8.13574 -28.6408
ltibia 30.1895
lfoot -8.2909 -9.32525
ltoes -16.853
575
root -5.50772 17.8017 -12.7892 18.2024 35.9346 2.93191
lowerback -5.0202 -0.420324 -1.54158
upperback -1.01521 -0.442492 -1.35435
thorax 1.7716 -0.222147 -0.55433
lowerneck -20.0439 0.846903 2.41722
upperneck 19.0424 1.20043 -3.19814
head 9.34415 0.378418 -1.33922
rclavicle 1.64892e-013 -1.61016e-014
rhumerus -32.7172 10.7077 -92.1935
rradius 29.8752
rwrist 3.87728
rhand -17.4219 11.501
rfingers 7.12502
rthumb 8.82826 -18.2943
lclavicle 1.64892e-013 -1.61016e-014
lhumerus -39.4807 -14.3085 85.5761
lradius 42.3938
lwrist 16.1874
lhand -7.70397 26.4725
lfingers 7.12502
lthumb 18.1937 55.6417
rfemur -0.699813 -3.91189 19.8431
rtibia 11.4288
rfoot -21.1077 14.3702
rtoes 4.29837
lfemur -47.4171 8.62283 -29.06
ltibia 31.0787
lfoot -7.26284 -9.27501
ltoes -18.2178
576
root -5.42585 17.7925 -12.6996 18.2177 35.6573 3.08171
lowerback -4.93232 -0.381462 -1.7419
upperback -0.981232 -0.377784 -1.52686
thorax 1.75744 -0.190261 -0.614596
lowerneck -20.2201 0.881321 2.56036
upperneck 19.0715 1.21688 -3.26863
head 9.38785 0.386768 -1.38561
rclavicle 2.86747e-014 1.31198e-014
rhumerus -32.8038 10.7077 -92.3509
rradius 30.0814
rwrist 3.50093
rhand -17.549 11.8051
rfingers 7.12502
rthumb 8.70554 -17.9954
lclavicle 2.86747e-014 1.31198e-014
lhumerus -39.4842 -14.6419 85.4781
lradius 42.3678
lwrist 16.1202
lhand -7.8228 26.2733
lfingers 7.12502
lthumb 18.0793 55.453
rfemur -0.231588 -3.75972 19.5331
rtibia 11.4833
rfoot -20.7906 14.4815
rtoes 4.15122
lfemur -47.4596 9.07675 -29.388
ltibia 31.8906
lfoot -6.48957 -9.4364
ltoes -18.0527
577
root -5.34305 17.7867 -12.6071 18.3433 35.4624 3.36588
lowerback -4.87944 -0.372724 -2.05741
upperback -0.980175 -0.346925 -1.69987
thorax 1.72972 -0.175433 -0.613213
lowerneck -20.3067 0.90537 2.65443
upperneck 19.0662 1.23876 -3.3545
head 9.40349 0.393117 -1.42809
rclavicle 1.1778e-014 -7.35503e-015
rhumerus -32.9242 10.6919 -92.459
rradius 30.2754
rwrist 3.16894
rhand -17.5879 11.8987
rfingers 7.12502
rthumb 8.66803 -17.9033
lclavicle 1.1778e-014 -7.35503e-015
lhumerus -39.4491 -14.7839 85.3482
lradius 42.1493
lwrist 15.7372
lhand -7.95721 26.0824
lfingers 7.12502
lthumb 17.95 55.274
rfemur 0.160638 -3.50447 19.1595
rtibia 11.6578
rfoot -20.6023 14.3459
rtoes 3.70577
lfemur -47.4593 9.22167 -29.632
ltibia 32.595
lfoot -5.84541 -9.43764
ltoes -16.3855
578
root -5.25732 17.7833 -12.5111 18.4373 35.2603 3.61483
lowerback -4.89172 -0.37657 -2.3575
upperback -0.983528 -0.332476 -1.83568
thorax 1.73399 -0.16893 -0.58385
lowerneck -20.2424 0.900009 2.5606
upperneck 19.0061 1.24406 -3.28592
head 9.37005 0.39714 -1.38742
rclavicle -3.06625e-014 -2.98177e-014
rhumerus -33.1028 10.7069 -92.5507
rradius 30.477
rwrist 2.92075
rhand -17.6689 11.6684
rfingers 7.12502
rthumb 8.58991 -18.1368
lclavicle -3.06625e-014 -2.98177e-014
lhumerus -39.5128 -14.877 85.3092
lradius 41.8712
lwrist 15.261
lhand -7.98253 25.8643
lfingers 7.12502
lthumb 17.9257 55.0582
rfemur 0.499224 -3.28258 18.8213
rtibia 11.9819
rfoot -20.5673 14.0905
rtoes 2.53987
lfemur -47.3778 9.39454 -29.8383
ltibia 33.2124
lfoot -5.53322 -9.34748
ltoes -14.896
